<?xml version="1.0" encoding="UTF-8"?>
<svg width="64" height="64" fill="none" version="1.1" viewBox="0 0 64 64" xmlns="http://www.w3.org/2000/svg" xmlns:cc="http://creativecommons.org/ns#" xmlns:dc="http://purl.org/dc/elements/1.1/" xmlns:rdf="http://www.w3.org/1999/02/22-rdf-syntax-ns#">
 <metadata>
  <rdf:RDF>
   <cc:Work rdf:about="">
    <dc:format>image/svg+xml</dc:format>
    <dc:type rdf:resource="http://purl.org/dc/dcmitype/StillImage"/>
    <dc:title/>
   </cc:Work>
  </rdf:RDF>
 </metadata>
 <circle cx="32" cy="28" r="24" fill="#fff"/>
 <path d="m31.997 23.998c-2.2035 0-4.0017 1.7982-4.0017 4.0017s1.7982 4.0017 4.0017 4.0017 4.0017-1.7982 4.0017-4.0017-1.7982-4.0017-4.0017-4.0017zm12.002 4.0017c0-1.6571 0.015-3.2992-0.078-4.9533-0.0931-1.9213-0.5314-3.6265-1.9364-5.0314-1.4079-1.408-3.1101-1.8433-5.0314-1.9364-1.6571-0.093-3.2992-0.078-4.9533-0.078-1.6571 0-3.2992-0.015-4.9533 0.078-1.9213 0.0931-3.6265 0.5314-5.0314 1.9364-1.408 1.4079-1.8433 3.1101-1.9364 5.0314-0.093 1.6571-0.078 3.2992-0.078 4.9533s-0.015 3.2992 0.078 4.9533c0.0931 1.9213 0.5314 3.6265 1.9364 5.0314 1.4079 1.408 3.1101 1.8433 5.0314 1.9364 1.6571 0.093 3.2992 0.078 4.9533 0.078 1.6571 0 3.2992 0.015 4.9533-0.078 1.9213-0.0931 3.6265-0.5314 5.0314-1.9364 1.408-1.4079 1.8433-3.1101 1.9364-5.0314 0.096-1.6541 0.078-3.2962 0.078-4.9533zm-12.002 6.1572c-3.4073 0-6.1572-2.7499-6.1572-6.1572s2.7499-6.1572 6.1572-6.1572 6.1572 2.7499 6.1572 6.1572-2.7499 6.1572-6.1572 6.1572zm6.4093-11.129c-0.7955 0-1.4379-0.6424-1.4379-1.4379 0-0.7956 0.6424-1.438 1.4379-1.438 0.7956 0 1.438 0.6424 1.438 1.438 2e-4 0.1889-0.0368 0.376-0.109 0.5505-0.0722 0.1746-0.1781 0.3332-0.3116 0.4668-0.1336 0.1336-0.2922 0.2395-0.4668 0.3117-0.1746 0.0721-0.3617 0.1092-0.5506 0.1089z" fill="#1a1a1a"/>
</svg>
