<?xml version="1.0" encoding="UTF-8"?>
<svg width="64" height="64" fill="none" version="1.1" viewBox="0 0 64 64" xmlns="http://www.w3.org/2000/svg" xmlns:cc="http://creativecommons.org/ns#" xmlns:dc="http://purl.org/dc/elements/1.1/" xmlns:rdf="http://www.w3.org/1999/02/22-rdf-syntax-ns#">
 <metadata>
  <rdf:RDF>
   <cc:Work rdf:about="">
    <dc:format>image/svg+xml</dc:format>
    <dc:type rdf:resource="http://purl.org/dc/dcmitype/StillImage"/>
    <dc:title/>
   </cc:Work>
  </rdf:RDF>
 </metadata>
 <circle transform="matrix(.99734 0 0 1.0002 .014733 -.0060673)" cx="32" cy="28" r="24" fill="#fff"/>
 <path d="m32.001 16c-6.6307-0.0027-12.001 5.3652-12.001 11.991 0 5.2392 3.3596 9.6928 8.0384 11.328 0.6301 0.1582 0.5336-0.2896 0.5336-0.5953v-2.078c-3.6385 0.4264-3.7859-1.9814-4.0299-2.3836-0.4934-0.8419-1.6597-1.0564-1.3112-1.4586 0.8285-0.4263 1.6731 0.1072 2.6518 1.5524 0.7078 1.0484 2.0887 0.8715 2.7885 0.6972 0.1528-0.6301 0.48-1.1932 0.9304-1.6302-3.7698-0.6757-5.3411-2.9762-5.3411-5.7111 0-1.3273 0.4371-2.5472 1.2951-3.5313-0.547-1.6221 0.0509-3.011 0.1314-3.2175 1.5578-0.1394 3.1773 1.1154 3.3033 1.2146 0.8848-0.2386 1.8956-0.3646 3.0271-0.3646 1.1369 0 2.1504 0.1314 3.0433 0.3727 0.3029-0.2306 1.8045-1.3085 3.2523-1.1771 0.0778 0.2065 0.6623 1.5632 0.1475 3.1639 0.8687 0.9867 1.3111 2.2174 1.3111 3.5473 0 2.7403-1.5819 5.0435-5.3625 5.7084 0.3238 0.3185 0.5809 0.6983 0.7563 1.1172s0.2656 0.8686 0.2653 1.3228v3.0164c0.0214 0.2413 0 0.4799 0.4022 0.4799 4.7485-1.6007 8.1671-6.0864 8.1671-11.371 0-6.6281-5.3733-11.993-11.999-11.993z" fill="#1a1a1a"/>
</svg>
