<svg class="global-nav__logo" version="1.1" viewBox="0 0 64 64" xmlns="http://www.w3.org/2000/svg">
 <defs>
  <filter id="filter0_d" x="0" y="0" width="64" height="64" color-interpolation-filters="sRGB" filterUnits="userSpaceOnUse">
   <feFlood flood-opacity="0" result="BackgroundImageFix"/>
   <feColorMatrix in="SourceAlpha" values="0 0 0 0 0 0 0 0 0 0 0 0 0 0 0 0 0 0 127 0"/>
   <feOffset dy="4"/>
   <feGaussianBlur stdDeviation="4"/>
   <feColorMatrix values="0 0 0 0 0.0611066 0 0 0 0 0.437703 0 0 0 0 0.793181 0 0 0 0.15 0"/>
   <feBlend in2="BackgroundImageFix" result="effect1_dropShadow"/>
   <feBlend in="SourceGraphic" in2="effect1_dropShadow" result="shape"/>
  </filter>
 </defs>
 <title>LinkedIn</title>
 <g transform="translate(-36.864 12.119)">
  <g transform="translate(36.864 -12.119)" fill="none" filter="url(#filter0_d)">
   <circle cx="32" cy="28" r="24" fill="#fff"/>
  </g>
  <path d="m80.102 6.2966v19.169a1.6525 1.6525 0 0 1-1.6525 1.6525h-19.169a1.6525 1.6525 0 0 1-1.6525-1.6525v-19.169a1.6525 1.6525 0 0 1 1.6525-1.6525h19.169a1.6525 1.6525 0 0 1 1.6525 1.6525zm-15.864 6.9407h-3.3051v10.576h3.3051zm0.29746-3.6356a1.9037 1.9037 0 0 0-1.8905-1.9169h-0.05949a1.9169 1.9169 0 0 0 0 3.8339 1.9037 1.9037 0 0 0 1.95-1.8575zm12.262 7.7868c0-3.1795-2.0227-4.4156-4.0322-4.4156a3.7678 3.7678 0 0 0-3.3447 1.7054h-0.09254v-1.441h-3.1068v10.576h3.3051v-5.6253a2.1946 2.1946 0 0 1 1.9831-2.3664h0.12559c1.051 0 1.831 0.66102 1.831 2.3268v5.6649h3.3051z" fill="#4da8ff" stroke-width=".66102"/>
 </g>
</svg>
